<svg xmlns="http://www.w3.org/2000/svg" xmlns:xlink="http://www.w3.org/1999/xlink" contentStyleType="text/css" data-diagram-type="DESCRIPTION" height="513px" preserveAspectRatio="none" style="width:813px;height:513px;background:#FFFFFF;" version="1.1" viewBox="0 0 813 513" width="813px" zoomAndPan="magnify"><title>Mikroservisna arhitektura</title><defs/><g><g class="title" data-source-line="1"><text fill="#000000" font-family="sans-serif" font-size="14" font-weight="bold" lengthAdjust="spacing" textLength="205.4678" x="297.0277" y="22.9951">Mikroservisna arhitektura</text></g><!--entity User--><g class="entity" data-qualified-name="User" data-source-line="3" id="ent0002"><ellipse cx="377.9551" cy="51.2969" fill="#F1F1F1" rx="8" ry="8" style="stroke:#181818;stroke-width:0.5;"/><path d="M377.9551,59.2969 L377.9551,86.2969 M364.9551,67.2969 L390.9551,67.2969 M377.9551,86.2969 L364.9551,101.2969 M377.9551,86.2969 L390.9551,101.2969" fill="none" style="stroke:#181818;stroke-width:0.5;"/><text fill="#000000" font-family="sans-serif" font-size="14" lengthAdjust="spacing" textLength="31.9102" x="362" y="115.792">User</text></g><!--entity FE--><g class="entity" data-qualified-name="FE" data-source-line="5" id="ent0003"><rect fill="#F1F1F1" height="52.5938" rx="2.5" ry="2.5" style="stroke:#181818;stroke-width:0.5;" width="99.7002" x="328.1" y="196.0969"/><text fill="#000000" font-family="sans-serif" font-size="14" lengthAdjust="spacing" textLength="63.1094" x="338.1" y="219.092">Frontend</text><text fill="#000000" font-family="sans-serif" font-size="14" lengthAdjust="spacing" textLength="79.7002" x="338.1" y="235.3889">(port 5000)</text></g><!--entity AUTH--><g class="entity" data-qualified-name="AUTH" data-source-line="6" id="ent0004"><rect fill="#F1F1F1" height="52.5938" rx="2.5" ry="2.5" style="stroke:#181818;stroke-width:0.5;" width="109.0039" x="62.45" y="325.6869"/><text fill="#000000" font-family="sans-serif" font-size="14" lengthAdjust="spacing" textLength="89.0039" x="72.45" y="348.682">Auth Service</text><text fill="#000000" font-family="sans-serif" font-size="14" lengthAdjust="spacing" textLength="79.7002" x="72.45" y="364.9789">(port 8002)</text></g><!--entity PROJ--><g class="entity" data-qualified-name="PROJ" data-source-line="7" id="ent0005"><rect fill="#F1F1F1" height="52.5938" rx="2.5" ry="2.5" style="stroke:#181818;stroke-width:0.5;" width="124.6445" x="502.63" y="455.2869"/><text fill="#000000" font-family="sans-serif" font-size="14" lengthAdjust="spacing" textLength="104.6445" x="512.63" y="478.282">Project Service</text><text fill="#000000" font-family="sans-serif" font-size="14" lengthAdjust="spacing" textLength="79.7002" x="512.63" y="494.5789">(port 8000)</text></g><!--entity STATS--><g class="entity" data-qualified-name="STATS" data-source-line="8" id="ent0006"><rect fill="#F1F1F1" height="52.5938" rx="2.5" ry="2.5" style="stroke:#181818;stroke-width:0.5;" width="111.9297" x="532.99" y="325.6869"/><text fill="#000000" font-family="sans-serif" font-size="14" lengthAdjust="spacing" textLength="91.9297" x="542.99" y="348.682">Stats Service</text><text fill="#000000" font-family="sans-serif" font-size="14" lengthAdjust="spacing" textLength="79.7002" x="542.99" y="364.9789">(port 8001)</text></g><!--link User to FE--><g class="link" data-entity-1="ent0002" data-entity-2="ent0003" data-link-type="dependency" data-source-line="10" id="lnk7"><path d="M377.95,119.3169 C377.95,143.5169 377.95,168.4069 377.95,189.8269" fill="none" id="User-to-FE" style="stroke:#181818;stroke-width:1;"/><polygon fill="#181818" points="377.95,195.8269,381.95,186.8269,377.95,190.8269,373.95,186.8269,377.95,195.8269" style="stroke:#181818;stroke-width:1;"/><text fill="#000000" font-family="sans-serif" font-size="13" lengthAdjust="spacing" textLength="260.5205" x="378.95" y="162.1638">HTTP requests (login, add project, view)</text></g><!--link FE to AUTH--><g class="link" data-entity-1="ent0003" data-entity-2="ent0004" data-link-type="dependency" data-source-line="11" id="lnk8"><path d="M327.85,223.5569 C239.69,225.0369 62.48,233.6769 23.95,278.6869 C6,299.6669 27.3688,316.164 56.7588,329.394" fill="none" id="FE-to-AUTH" style="stroke:#181818;stroke-width:1;"/><polygon fill="#181818" points="62.23,331.8569,55.6651,324.5151,57.6707,329.8045,52.3813,331.81,62.23,331.8569" style="stroke:#181818;stroke-width:1;"/><text fill="#000000" font-family="sans-serif" font-size="13" lengthAdjust="spacing" textLength="169.3618" x="24.95" y="291.7538">POST /login, /signup (JWT)</text></g><!--link AUTH to FE--><g class="link" data-entity-1="ent0004" data-entity-2="ent0003" data-link-type="dependency" data-source-line="16" id="lnk13"><path d="M155.01,325.2369 C177.66,310.5369 207.28,292.3769 234.95,278.6869 C264.89,263.8769 294.2024,252.3227 322.0524,242.3327" fill="none" id="AUTH-to-FE" style="stroke:#181818;stroke-width:1;"/><polygon fill="#181818" points="327.7,240.3069,317.878,239.5806,322.9936,241.9951,320.5791,247.1108,327.7,240.3069" style="stroke:#181818;stroke-width:1;"/><text fill="#000000" font-family="sans-serif" font-size="13" lengthAdjust="spacing" textLength="69.0244" x="235.95" y="291.7538">return JWT</text></g><!--link FE to PROJ--><g class="link" data-entity-1="ent0003" data-entity-2="ent0005" data-link-type="dependency" data-source-line="12" id="lnk9"><path d="M363.07,249.0769 C346.37,281.6269 324.71,338.3169 349.95,378.2869 C383.12,430.7969 445.5869,455.4606 496.3569,468.0706" fill="none" id="FE-to-PROJ" style="stroke:#181818;stroke-width:1;"/><polygon fill="#181818" points="502.18,469.5169,494.4096,463.4654,497.3274,468.3116,492.4812,471.2295,502.18,469.5169" style="stroke:#181818;stroke-width:1;"/><text fill="#000000" font-family="sans-serif" font-size="13" lengthAdjust="spacing" textLength="164.4678" x="350.95" y="356.5538">GET/POST /projects (JWT)</text></g><!--link PROJ to FE--><g class="link" data-entity-1="ent0005" data-entity-2="ent0003" data-link-type="dependency" data-source-line="14" id="lnk11"><path d="M627.76,468.9569 C652.4,460.9969 678.26,447.6369 692.95,425.2869 C730.68,367.8769 696.27,323.2069 643.95,278.6869 C611.98,251.4869 501.8356,236.0184 434.0456,228.7284" fill="none" id="PROJ-to-FE" style="stroke:#181818;stroke-width:1;"/><polygon fill="#181818" points="428.08,228.0869,436.6007,233.0262,433.0513,228.6215,437.4561,225.0721,428.08,228.0869" style="stroke:#181818;stroke-width:1;"/><text fill="#000000" font-family="sans-serif" font-size="13" lengthAdjust="spacing" textLength="96.5732" x="708.95" y="356.5538">return projects</text></g><!--link FE to STATS--><g class="link" data-entity-1="ent0003" data-entity-2="ent0006" data-link-type="dependency" data-source-line="13" id="lnk10"><path d="M384.7,249.0269 C390.01,264.5269 398.91,283.5669 412.95,295.6869 C415.35,297.7669 476.5122,316.7126 527.1122,332.1826" fill="none" id="FE-to-STATS" style="stroke:#181818;stroke-width:1;"/><polygon fill="#181818" points="532.85,333.9369,525.4127,327.4803,528.0685,332.475,523.0738,335.1307,532.85,333.9369" style="stroke:#181818;stroke-width:1;"/><text fill="#000000" font-family="sans-serif" font-size="13" lengthAdjust="spacing" textLength="122.1289" x="413.95" y="291.7538">GET /stats/... (JWT)</text></g><!--link STATS to FE--><g class="link" data-entity-1="ent0006" data-entity-2="ent0003" data-link-type="dependency" data-source-line="15" id="lnk12"><path d="M577.35,325.4169 C569.17,309.9469 556.83,290.9069 540.95,278.6869 C507.91,253.2669 468.3396,240.4173 433.8296,232.8173" fill="none" id="STATS-to-FE" style="stroke:#181818;stroke-width:1;"/><polygon fill="#181818" points="427.97,231.5269,435.8991,237.3689,432.853,232.6022,437.6197,229.5561,427.97,231.5269" style="stroke:#181818;stroke-width:1;"/><text fill="#000000" font-family="sans-serif" font-size="13" lengthAdjust="spacing" textLength="76.1021" x="558.95" y="291.7538">return stats</text></g><!--link STATS to PROJ--><g class="link" data-entity-1="ent0006" data-entity-2="ent0005" data-link-type="dependency" data-source-line="18" id="lnk14"><path d="M573.49,378.5169 C568.82,387.5869 564.31,398.0869 561.95,408.2869 C558.44,423.4569 558.3816,434.9331 559.9216,448.8831" fill="none" id="STATS-to-PROJ" style="stroke:#181818;stroke-width:1;"/><polygon fill="#181818" points="560.58,454.8469,563.5683,445.4623,560.0314,449.8771,555.6166,446.3401,560.58,454.8469" style="stroke:#181818;stroke-width:1;"/><text fill="#000000" font-family="sans-serif" font-size="13" lengthAdjust="spacing" textLength="125.8232" x="562.95" y="421.3538">GET /projects (JWT)</text></g><!--SRC=[RP71QuCm58Vl-IiUFLbeDHiCnWu53-rAOLHcoYwx10qsQqdSI-p-_RqOspdfKTxt_Vn4h_rPmPi-eNKABzeP2HAFsgkJxr0o9Yjl4GvqP0nLvQLfI9Xjq1glJFrfajQYXoVE-Nm6qi5cFURopX-X3CkLkhBFd3z6DZ-8xPWkq7xHqnrX62_UzxknK7hftHty8UAbo4N9MAY7vN95RV02Mo4AGFNTAKTkShQDDWkGTGrjVFq2Bbhzp1dHGGgHf1NxKa0sq9dJZUbQI7OVuWQ6E09VroAByB3d_cDzLEHe9tn0bgRfmFGRjrHKz1FCjSkng4xF_GRhCwSdscGZwwzm6lSB]--></g></svg>